<svg width="50" height="50" viewBox="0 0 50 50" fill="none" xmlns="http://www.w3.org/2000/svg">
<mask id="mask0_35_360" style="mask-type:alpha" maskUnits="userSpaceOnUse" x="0" y="0" width="50" height="50">
<rect width="50" height="50" fill="#D9D9D9"/>
</mask>
<g mask="url(#mask0_35_360)">
<path d="M10.416 35.4168V20.8335H14.5827V35.4168H10.416ZM22.916 35.4168V20.8335H27.0827V35.4168H22.916ZM4.16602 16.6668V12.5002L24.9993 2.0835L45.8327 12.5002V16.6668H4.16602ZM13.4889 12.5002H36.5098L24.9993 6.771L13.4889 12.5002ZM4.16602 43.7502V39.5835H29.2702C29.3396 40.3127 29.4264 41.0158 29.5306 41.6929C29.6348 42.37 29.791 43.0557 29.9993 43.7502H4.16602ZM35.416 27.6043V20.8335H39.5827V25.521L35.416 27.6043ZM41.666 50.0002C39.2702 49.4099 37.2823 48.0297 35.7025 45.8595C34.1226 43.6894 33.3327 41.2849 33.3327 38.646V33.3335L41.666 29.1668L49.9993 33.3335V38.646C49.9993 41.2849 49.2094 43.6894 47.6296 45.8595C46.0497 48.0297 44.0618 49.4099 41.666 50.0002ZM40.1556 43.7502L47.3952 36.5627L45.2077 34.3752L40.1556 39.3231L38.1244 37.2918L35.9368 39.5314L40.1556 43.7502Z" fill="#5BA44C"/>
</g>
</svg>
