<svg width="36" height="37" viewBox="0 0 36 37" fill="none" xmlns="http://www.w3.org/2000/svg">
<path d="M4.83913 25.7391V14.4783H8.02095V25.7391H4.83913ZM14.3846 25.7391V14.4783H17.5664V25.7391H14.3846ZM0.0664062 11.2609V8.04348L15.9755 0L31.8846 8.04348V11.2609H0.0664062ZM7.18572 8.04348H24.7653L15.9755 3.61957L7.18572 8.04348ZM0.0664062 32.1739V28.9565H19.2369C19.2899 29.5196 19.3562 30.0625 19.4357 30.5853C19.5153 31.1082 19.6346 31.6377 19.7937 32.1739H0.0664062ZM23.93 19.7065V14.4783H27.1119V18.0978L23.93 19.7065ZM28.7028 37C26.8732 36.5442 25.3552 35.4784 24.1488 33.8027C22.9424 32.127 22.3391 30.2703 22.3391 28.2326V24.1304L28.7028 20.913L35.0664 24.1304V28.2326C35.0664 30.2703 34.4632 32.127 33.2567 33.8027C32.0503 35.4784 30.5323 36.5442 28.7028 37ZM27.5494 32.1739L33.0778 26.6239L31.4073 24.9348L27.5494 28.7554L25.9982 27.187L24.3278 28.9163L27.5494 32.1739Z" fill="#1A2844"/>
</svg>
