<svg width="127" height="29" viewBox="0 0 127 29" fill="none" xmlns="http://www.w3.org/2000/svg">
<mask id="mask0_15_290" style="mask-type:luminance" maskUnits="userSpaceOnUse" x="0" y="0" width="127" height="29">
<path d="M126.065 0.510254H0.179688V28.4659H126.065V0.510254Z" fill="white"/>
</mask>
<g mask="url(#mask0_15_290)">
<path d="M42.88 9.01691C42.8645 9.04425 42.8447 9.06889 42.8213 9.08987C41.3211 10.905 39.9715 12.8397 38.786 14.8745C38.8008 14.6186 38.8082 14.3543 38.8082 14.0814C38.8249 12.9066 38.6798 11.7351 38.377 10.5999C39.3568 9.61964 40.3367 8.69651 41.2579 7.87172L42.0507 7.16113C42.386 7.74791 42.6652 8.36501 42.8847 9.00422" fill="#498232"/>
<path d="M43.608 10.8154C41.4881 13.8236 39.598 16.9873 37.9539 20.2799C36.7744 22.3645 35.7156 24.5151 34.7828 26.7212C34.6761 26.9572 34.5515 27.1847 34.4102 27.4016C40.792 26.0994 43.6476 21.736 43.6476 13.8085C43.6476 13.0915 43.6873 11.4753 43.6064 10.817" fill="#D59A15"/>
<path d="M40.064 4.66646C38.8798 3.546 37.4754 2.68434 35.9402 2.13629C34.405 1.58824 32.7726 1.36579 31.1468 1.48308C30.1892 1.48308 27.8446 1.54917 24.1133 1.68135V14.9256C24.2163 14.9256 24.3257 14.9256 24.4304 14.9256C25.2794 14.9285 26.1212 15.0821 26.9166 15.3792C27.5838 15.6407 28.2155 15.9849 28.797 16.4039V5.77675C29.7182 5.69586 30.427 5.65303 30.9391 5.65303C34.0606 5.65303 36.2513 6.65758 37.5113 8.66669C38.1486 7.7663 38.8841 6.9396 39.7041 6.20183C40.0402 5.90205 40.3621 5.61655 40.684 5.34532C40.4858 5.11216 40.2813 4.88534 40.0624 4.66487" fill="#498232"/>
<path d="M26.8611 27.7964C26.16 26.2876 25.2335 24.8944 24.1133 23.6646V28.0233L26.999 28.1026C26.9483 28.001 26.9039 27.8995 26.8611 27.7964Z" fill="#D59A15"/>
<path d="M62.2781 22.1226V17.9986C62.2781 14.2601 61.59 11.7302 60.2311 10.3852C58.4191 8.90239 56.101 8.18385 53.7684 8.3819C51.8689 8.33201 49.9832 8.71721 48.2554 9.50806L49.221 12.9976C50.5479 12.3749 52.0039 12.0769 53.4687 12.1284C56.3227 12.1284 57.7688 13.2609 57.7688 15.5433C57.1594 15.3718 56.5307 15.2785 55.8978 15.2657C53.3783 15.107 50.8751 15.7686 48.7628 17.1516C47.9486 17.7523 47.2941 18.5436 46.8568 19.4562C46.4194 20.3687 46.2126 21.3747 46.2544 22.3859C46.2044 23.2079 46.3377 24.0307 46.6449 24.7947C46.952 25.5587 47.4253 26.2448 48.0302 26.8033C49.4131 27.9078 51.155 28.4624 52.9217 28.3609C54.0115 28.3639 55.0905 28.1448 56.0928 27.7169C56.9603 27.4084 57.7076 26.8325 58.227 26.0721C58.4298 26.6752 58.7874 27.2145 59.2639 27.636C59.7285 28.0958 60.3545 28.3555 61.0081 28.3593C61.536 28.37 62.0621 28.2934 62.5651 28.1325C63.1146 27.9053 63.5584 27.4794 63.8082 26.9397C62.7775 26.2735 62.2654 24.6652 62.2654 22.0988M57.791 20.7236C57.8704 21.2741 57.8204 21.8354 57.645 22.3632C57.4695 22.8909 57.1735 23.3704 56.7804 23.7637C56.3873 24.1569 55.9079 24.4531 55.3804 24.6286C54.8528 24.804 54.2917 24.8541 53.7414 24.7746C51.7452 24.7746 50.7289 23.9117 50.7289 22.1844C50.7289 19.8592 52.5047 18.695 56.0595 18.695C56.6403 18.7215 57.2176 18.7996 57.7846 18.9281L57.791 20.7236Z" fill="#498232"/>
<path d="M79.633 28.0202V16.148C79.6558 15.6211 79.5689 15.0953 79.3778 14.6038C79.1868 14.1124 78.8957 13.6659 78.5231 13.2929C78.1323 12.9287 77.673 12.6458 77.1718 12.4609C76.6707 12.276 76.1378 12.1927 75.6041 12.2159C74.8164 12.228 74.044 12.4351 73.3558 12.8187C72.7048 13.1283 72.1462 13.6029 71.7354 14.1954V28.0281H67.1562V1.58883L71.729 0.510254V9.97631C73.0714 8.85723 74.7887 8.29025 76.5333 8.39017C77.5558 8.327 78.5804 8.47212 79.5452 8.81673C80.51 9.16135 81.3949 9.6983 82.1461 10.395C82.8482 11.1701 83.3871 12.0786 83.7306 13.0664C84.0741 14.0543 84.2152 15.1012 84.1455 16.1448V28.017L79.633 28.0202Z" fill="#498232"/>
<path d="M103.731 22.123V17.9991C103.731 14.2606 103.043 11.7307 101.684 10.3856C99.875 8.90156 97.5583 8.18275 95.2275 8.38234C93.3234 8.33245 91.4331 8.7176 89.7002 9.5085L90.6721 12.998C91.9993 12.3759 93.4551 12.078 94.9199 12.1288C97.7865 12.1288 99.2199 13.2613 99.2199 15.5437C98.6107 15.3717 97.9819 15.2784 97.3489 15.2662C94.8293 15.1063 92.3257 15.768 90.2139 17.1521C89.3997 17.7527 88.7452 18.544 88.3079 19.4566C87.8706 20.3692 87.6637 21.3752 87.7055 22.3863C87.6555 23.209 87.7896 24.0325 88.0982 24.7967C88.4068 25.561 88.8821 26.2466 89.4893 26.8037C90.8691 27.9082 92.6086 28.463 94.3728 28.3613C95.4627 28.3651 96.5418 28.146 97.544 27.7173C98.4114 27.4088 99.1587 26.8329 99.6781 26.0725C99.8809 26.6756 100.238 27.2149 100.715 27.6364C101.18 28.0963 101.806 28.3559 102.459 28.3597C102.989 28.3697 103.517 28.2931 104.023 28.1329C104.569 27.9033 105.01 27.478 105.259 26.9401C104.235 26.2739 103.717 24.6656 103.717 22.0992M99.25 20.7241C99.3288 21.2745 99.2783 21.8358 99.1026 22.3633C98.9268 22.8909 98.6307 23.3702 98.2375 23.7634C97.8444 24.1565 97.3651 24.4526 96.8376 24.6282C96.3102 24.8038 95.7491 24.8541 95.1989 24.775C93.1905 24.775 92.1863 23.9117 92.1863 22.1849C92.1863 19.8596 93.9558 18.6954 97.5091 18.6954C98.0925 18.7214 98.6725 18.7994 99.2421 18.9286L99.25 20.7241Z" fill="#498232"/>
<path d="M123.478 11.0644C122.589 10.1708 121.524 9.47205 120.35 9.01249C119.176 8.55293 117.92 8.34262 116.66 8.39493C115.277 8.3862 113.919 8.76593 112.741 9.49095V0.510254L108.244 1.58407V28.3818H110.781L111.789 26.9622C113.129 27.9255 114.746 28.424 116.396 28.3818C117.707 28.4468 119.017 28.2291 120.237 27.7433C121.456 27.2576 122.558 26.5152 123.466 25.5664C125.287 23.4445 126.219 20.7013 126.069 17.9086C126.115 16.6526 125.91 15.4001 125.466 14.2245C125.021 13.049 124.347 11.974 123.481 11.0628M120.031 23.0207C119.417 23.5917 118.687 24.0246 117.892 24.2905C117.096 24.5564 116.253 24.6491 115.419 24.5624C114.913 24.5851 114.409 24.4916 113.945 24.2889C113.481 24.0863 113.07 23.7799 112.742 23.3934V13.3373C113.14 12.9439 113.617 12.64 114.141 12.4458C114.666 12.2515 115.226 12.1716 115.783 12.2112C119.52 12.2112 121.387 14.1642 121.384 18.0704C121.538 19.8288 121.057 21.5844 120.031 23.0207Z" fill="#498232"/>
<path d="M50.4189 1.32249C49.9715 1.8708 49.4636 2.36671 48.9047 2.80077C46.8143 4.68258 44.8507 6.70086 43.027 8.84236C42.9763 8.90104 42.9319 8.95973 42.8812 9.01842C42.8657 9.04574 42.8459 9.07038 42.8225 9.09138C41.3221 10.9064 39.9725 12.841 38.7872 14.876C38.6287 15.1536 38.4701 15.4248 38.3274 15.7024C37.6932 16.8127 37.0923 17.9468 36.4707 19.0666C36.4343 19.1395 36.4121 19.1982 36.3756 19.2569C35.6082 20.639 34.8915 22.0406 34.2256 23.4618C33.78 24.3754 33.3694 25.2906 32.9825 26.2264C32.8458 26.6326 32.6041 26.9953 32.2819 27.2778C31.9597 27.5603 31.5685 27.7524 31.148 27.8347C30.8039 27.9077 30.4821 28.0473 30.138 28.152C30.0813 28.1738 30.0223 28.1887 29.962 28.1964C29.8126 28.2559 29.647 28.261 29.4943 28.2107C29.3183 28.152 29.2025 27.9981 29.0709 27.7348C28.6983 26.9814 28.3542 26.228 27.9372 25.4968C26.534 22.9882 24.4436 20.9328 21.9121 19.5726C21.1193 19.1491 21.1082 18.9286 21.8312 18.402C22.5157 17.843 23.3261 17.4592 24.1922 17.2838C24.3095 17.2838 24.4268 17.2616 24.5426 17.2616C25.1353 17.2475 25.7258 17.3388 26.2867 17.5312C27.2884 17.8917 28.1958 18.4741 28.9409 19.2347C29.4308 19.7106 29.8843 20.2292 30.3299 20.7558C30.4171 20.8732 30.5059 20.9906 30.647 21.165C30.88 20.7558 31.064 20.4196 31.2606 20.0896C31.8457 19.0507 32.3784 17.9975 33.0301 17.003C34.5892 14.7045 36.3395 12.5418 38.2624 10.5379C39.2138 9.52915 40.1651 8.57747 41.0546 7.72254L41.8299 6.99134C43.9601 5.02575 46.2216 3.20754 48.5987 1.54931C48.9348 1.30821 50.0257 0.372395 50.4268 0.949748C50.461 1.0059 50.4791 1.07038 50.4791 1.13612C50.4791 1.20186 50.461 1.26633 50.4268 1.32249" fill="#498232"/>
<path d="M18.7549 19.7869H4.90501C4.90662 20.4647 5.0483 21.1349 5.32116 21.7553C5.59402 22.3757 5.99215 22.933 6.49058 23.3922C7.60123 24.2955 9.00764 24.7539 10.437 24.6786C11.2907 24.7407 12.1481 24.6303 12.9582 24.354C13.7683 24.0777 14.5146 23.6411 15.1525 23.0702L16.9077 26.5296C14.819 27.9688 12.3022 28.6525 9.77269 28.4678C8.48785 28.5357 7.20271 28.34 5.99619 27.893C4.78967 27.4459 3.68724 26.7569 2.75658 25.8682C1.86191 24.8941 1.17265 23.7496 0.72997 22.5031C0.287285 21.2566 0.100253 19.9336 0.180042 18.6132C0.123365 17.2477 0.34537 15.885 0.832513 14.6082C1.31966 13.3315 2.06172 12.1673 3.01344 11.1869C3.89176 10.2726 4.94839 9.54837 6.11789 9.05918C7.28738 8.56998 8.54482 8.32621 9.81233 8.34296C11.0523 8.28532 12.2912 8.47855 13.4548 8.91107C14.6184 9.34359 15.6828 10.0065 16.5843 10.8601C17.4282 11.6953 18.0906 12.6958 18.5299 13.799C18.9692 14.9023 19.1759 16.0844 19.137 17.2713C19.0952 18.1211 18.9677 18.9644 18.7565 19.7885M5.06833 16.3862H14.5912C14.5946 15.7871 14.4715 15.194 14.23 14.6457C13.9884 14.0974 13.6338 13.6063 13.1894 13.2046C12.745 12.8029 12.2209 12.4996 11.6512 12.3145C11.0815 12.1294 10.4792 12.0668 9.88368 12.1306C7.30027 12.1306 5.69515 13.5492 5.06833 16.3862Z" fill="#498232"/>
</g>
</svg>
