<svg width="83" height="51" viewBox="0 0 83 51" fill="none" xmlns="http://www.w3.org/2000/svg">
<path fill-rule="evenodd" clip-rule="evenodd" d="M30.75 45.4021H52.8178V5.55518H30.75V45.4021Z" fill="#FF5F00"/>
<path fill-rule="evenodd" clip-rule="evenodd" d="M32.1514 25.4778C32.1457 21.6443 33.0096 17.8595 34.678 14.4084C36.3465 10.9573 38.7761 7.92999 41.7837 5.55439C38.06 2.61527 33.5825 0.787313 28.8664 0.28077C24.1503 -0.225773 19.387 0.609674 15.1245 2.69102C10.8619 4.77236 7.27322 8.01506 4.77115 12.0461C2.26908 16.0772 0.955273 20.733 0.980835 25.4778C0.955273 30.2227 2.26908 34.8784 4.77115 38.9095C7.27322 42.9406 10.8619 46.1833 15.1245 48.2647C19.387 50.346 24.1503 51.1814 28.8664 50.6749C33.5825 50.1684 38.06 48.3404 41.7837 45.4013C38.7761 43.0256 36.3467 39.9982 34.6782 36.5472C33.0097 33.0961 32.1458 29.3113 32.1514 25.4778Z" fill="#EB001B"/>
<path fill-rule="evenodd" clip-rule="evenodd" d="M81.7996 41.1811V40.1977H81.5427L81.2494 40.8749L80.9545 40.1977H80.6992V41.1811H80.88V40.4388L81.1559 41.0732H81.343L81.6188 40.4388V41.1826L81.7996 41.1811ZM80.1807 41.1811V40.3658H80.509V40.2072H79.6749V40.3658H80.0016V41.1811H80.1807ZM82.5876 25.4783C82.6134 30.2235 81.2997 34.8795 78.7975 38.9109C76.2954 42.9423 72.7065 46.1852 68.4436 48.2666C64.1808 50.348 59.4172 51.1833 54.7008 50.6765C49.9845 50.1697 45.5069 48.3414 41.7832 45.4018C44.7866 43.0224 47.2132 39.9942 48.8813 36.544C50.5494 33.0938 51.4159 29.3109 51.4159 25.4783C51.4159 21.6458 50.5494 17.8628 48.8813 14.4126C47.2132 10.9624 44.7866 7.9343 41.7832 5.55488C45.5069 2.61576 49.9843 0.787801 54.7005 0.281258C59.4166 -0.225285 64.1798 0.610162 68.4424 2.69151C72.705 4.77285 76.2937 8.01555 78.7957 12.0466C81.2978 16.0777 82.6116 20.7334 82.586 25.4783H82.5876Z" fill="#F79E1B"/>
</svg>
