<svg width="54" height="54" viewBox="0 0 54 54" fill="none" xmlns="http://www.w3.org/2000/svg">
<path fill-rule="evenodd" clip-rule="evenodd" d="M25.6881 1.8124C25.6881 1.0876 26.2757 0.5 27.0005 0.5C27.7255 0.5 28.3131 1.0876 28.3131 1.8126V5.0624C28.3131 5.7874 27.7255 6.375 27.0005 6.375C26.2757 6.375 25.6881 5.7874 25.6881 5.0624V1.8124ZM27.0005 1.5C26.8281 1.5 26.6881 1.64 26.6881 1.8124V5.0624C26.6881 5.235 26.8281 5.375 27.0005 5.375C27.1731 5.375 27.3131 5.235 27.3131 5.0624V1.8126C27.3131 1.64 27.1731 1.5 27.0005 1.5ZM8.26228 8.2618C8.77468 7.7492 9.60588 7.7492 10.1183 8.2618L12.4165 10.5598C12.9291 11.0724 12.9291 11.9034 12.4165 12.416C11.9039 12.9286 11.0729 12.9286 10.5603 12.416L8.26228 10.118C7.74968 9.6054 7.74968 8.7744 8.26228 8.2618ZM9.41128 8.9688C9.28928 8.8468 9.09128 8.8468 8.96928 8.9688C8.84728 9.091 8.84728 9.2888 8.96928 9.4108L11.2675 11.709C11.3895 11.831 11.5873 11.831 11.7093 11.709C11.8315 11.5868 11.8315 11.389 11.7093 11.267L9.41128 8.9688ZM43.8827 8.262C44.3953 7.7494 45.2263 7.7494 45.7389 8.262C46.2515 8.7746 46.2515 9.6056 45.7389 10.1182L43.4407 12.4162C42.9283 12.9288 42.0971 12.9288 41.5847 12.4162C41.0721 11.9036 41.0721 11.0726 41.5847 10.56L43.8827 8.262ZM45.0317 8.969C44.9097 8.847 44.7119 8.847 44.5899 8.969L42.2917 11.2672C42.1697 11.3892 42.1697 11.587 42.2917 11.7092C42.4137 11.8312 42.6117 11.8312 42.7337 11.7092L45.0317 9.411C45.1539 9.289 45.1539 9.0912 45.0317 8.969ZM1.00048 27C0.500675 26.2752 1.08827 25.6874 1.81307 25.6874H5.06307C5.78787 25.6874 6.37568 26.2752 6.37548 27C6.37568 27.7248 5.78787 28.3124 5.06307 28.3124L1.81307 28.3126C1.08827 28.3124 0.500675 27.7248 1.00048 27ZM1.81307 26.6874C1.64047 26.6874 1.50048 26.8274 1.50048 27C1.50048 27.1726 1.64047 27.3124 1.81307 27.3126L5.06307 27.3124C5.23567 27.3124 5.37568 27.1726 5.37548 27C5.37548 26.8274 5.23567 26.6874 5.06307 26.6874H1.81307ZM48.9381 26.6874C48.7655 26.6874 48.6257 26.8274 48.6257 27C48.6257 27.1726 48.7655 27.3124 48.9381 27.3126H52.1881C52.3607 27.3124 52.5005 27.1726 52.5005 27C52.5005 26.8274 52.3607 26.6874 52.1881 26.6874H48.9381ZM47.6257 27C47.6257 26.2752 48.2133 25.6874 48.9381 25.6874H52.1881C52.9129 25.6876 53.5005 26.2752 53.5005 27C53.5005 27.7248 52.9129 28.3124 52.1881 28.3126H48.9381C48.2133 28.3124 47.6257 27.7248 47.6257 27ZM41.5847 41.5842C42.0971 41.0716 42.9283 41.0716 43.4407 41.5842L45.7389 43.8822C46.2515 44.3948 46.2515 45.2258 45.7389 45.7384C45.2263 46.251 44.3953 46.251 43.8827 45.7384L41.5847 43.4404C41.0721 42.9278 41.0721 42.0968 41.5847 41.5842ZM42.7337 42.2914C42.6117 42.1692 42.4137 42.1692 42.2917 42.2914C42.1697 42.4134 42.1697 42.6112 42.2917 42.7332L44.5899 45.0314C44.7119 45.1534 44.9097 45.1534 45.0317 45.0314C45.1539 44.9094 45.1539 44.7114 45.0317 44.5894L42.7337 42.2914ZM10.5603 41.5844C11.0729 41.0718 11.9039 41.0718 12.4165 41.5844C12.9291 42.097 12.9291 42.928 12.4165 43.4406L10.1183 45.7386C9.60588 46.2512 8.77468 46.2512 8.26228 45.7386C7.74968 45.226 7.74968 44.395 8.26228 43.8824L10.5603 41.5844ZM11.7093 42.2914C11.5873 42.1694 11.3895 42.1694 11.2675 42.2914L8.96928 44.5896C8.84728 44.7116 8.84728 44.9094 8.96928 45.0316C9.09128 45.1536 9.28928 45.1536 9.41128 45.0316L11.7093 42.7334C11.8315 42.6114 11.8315 42.4136 11.7093 42.2914ZM25.6881 48.9374C25.6881 48.2126 26.2757 47.625 27.0005 47.625C27.7255 47.625 28.3131 48.2126 28.3131 48.9374V52.1874C28.3131 52.9124 27.7255 53.5 27.0007 53.5C26.2757 53.5 25.6881 52.9124 25.6881 52.1874V48.9374ZM27.0005 48.625C26.8281 48.625 26.6881 48.765 26.6881 48.9374V52.1874C26.6881 52.36 26.8281 52.5 27.0005 52.5C27.1731 52.5 27.3131 52.36 27.3131 52.1874V48.9374C27.3131 48.765 27.1731 48.625 27.0005 48.625Z" fill="#02071B"/>
</svg>
