<svg width="143" height="47" viewBox="0 0 143 47" fill="none" xmlns="http://www.w3.org/2000/svg">
<path d="M61.8366 45.6813H50.3066L57.5183 0.995117H69.0477L61.8366 45.6813Z" fill="#00579F"/>
<path d="M103.634 2.08753C101.36 1.18337 97.7524 0.185059 93.2922 0.185059C81.906 0.185059 73.8879 6.26967 73.8387 14.9688C73.7441 21.3871 79.5794 24.9519 83.9438 27.0919C88.4046 29.2787 89.9209 30.7061 89.9209 32.6553C89.8755 35.649 86.3163 37.0289 82.9967 37.0289C78.3934 37.0289 75.9269 36.3174 72.1786 34.6519L70.6603 33.9379L69.0469 43.969C71.7511 45.2036 76.7333 46.2992 81.906 46.3473C94.0041 46.3473 101.88 40.3568 101.974 31.0864C102.02 25.9995 98.9384 22.1017 92.2954 18.9166C88.2627 16.8719 85.793 15.4933 85.793 13.4012C85.8403 11.4994 87.8819 9.55145 92.4341 9.55145C96.1824 9.45604 98.9365 10.3589 101.023 11.2625L102.066 11.737L103.634 2.08753Z" fill="#00579F"/>
<path d="M118.958 29.8506C119.907 27.2834 123.561 17.3478 123.561 17.3478C123.513 17.4432 124.509 14.7332 125.078 13.0696L125.884 16.92C125.884 16.92 128.067 27.6164 128.542 29.8506C126.74 29.8506 121.235 29.8506 118.958 29.8506ZM133.19 0.995117H124.272C121.522 0.995117 119.432 1.80261 118.245 4.70275L101.119 45.6807H113.217C113.217 45.6807 115.209 40.1654 115.637 38.9775C116.964 38.9775 128.733 38.9775 130.441 38.9775C130.772 40.5464 131.816 45.6807 131.816 45.6807H142.492L133.19 0.995117Z" fill="#00579F"/>
<path d="M40.6756 0.995117L29.3839 31.4668L28.15 25.2868C26.0624 18.1559 19.5153 10.4083 12.209 6.55594L22.5518 45.6339H34.7444L52.8676 0.995117H40.6756Z" fill="#00579F"/>
<path d="M18.8986 0.995117H0.347984L0.158203 1.89802C14.6289 5.60628 24.2125 14.5449 28.15 25.2887L24.1173 4.7514C23.4534 1.89738 21.4131 1.08926 18.8986 0.995117Z" fill="#FAA61A"/>
</svg>
