<svg width="52" height="52" viewBox="0 0 52 52" fill="none" xmlns="http://www.w3.org/2000/svg">
<path d="M44.3845 7.61549C44.7017 7.93269 44.7017 8.44709 44.3845 8.76449L42.0863 11.0625C41.7691 11.3799 41.2545 11.3799 40.9373 11.0625C40.6199 10.7453 40.6199 10.2309 40.9373 9.91349L43.2353 7.61549C43.5527 7.29809 44.0671 7.29809 44.3845 7.61549Z" fill="#FF864D"/>
<path d="M11.0622 40.9382C11.3794 41.2554 11.3794 41.7698 11.0622 42.0872L8.764 44.3852C8.4468 44.7026 7.9322 44.7026 7.615 44.3852C7.2976 44.068 7.2976 43.5536 7.615 43.2362L9.913 40.9382C10.2304 40.6208 10.7448 40.6208 11.0622 40.9382Z" fill="#FF864D"/>
<path d="M44.3845 44.385C44.0671 44.7022 43.5527 44.7022 43.2353 44.3848L40.9373 42.0868C40.6199 41.7696 40.6199 41.255 40.9373 40.9378C41.2545 40.6204 41.7691 40.6204 42.0863 40.9378L44.3845 43.2358C44.7017 43.5532 44.7017 44.0676 44.3845 44.385Z" fill="#FF864D"/>
<path d="M11.0622 11.0625C10.7448 11.3799 10.2304 11.3799 9.913 11.0625L7.615 8.76449C7.2976 8.44709 7.2976 7.93269 7.615 7.61549C7.9322 7.29809 8.4468 7.29809 8.764 7.61549L11.0622 9.91349C11.3794 10.2309 11.3794 10.7453 11.0622 11.0625Z" fill="#FF864D"/>
<path d="M25.9999 0C26.4487 0 26.8125 0.363799 26.8125 0.812599V4.0624C26.8125 4.5112 26.4487 4.875 25.9999 4.875C25.5511 4.875 25.1875 4.5112 25.1875 4.0624V0.812401C25.1875 0.363801 25.5511 0 25.9999 0Z" fill="#FF864D"/>
<path d="M25.9999 47.125C26.4487 47.125 26.8125 47.4888 26.8125 47.9374V51.1874C26.8125 51.6362 26.4487 52 25.9999 52C25.5511 52 25.1875 51.6362 25.1875 51.1874V47.9374C25.1875 47.4888 25.5511 47.125 25.9999 47.125Z" fill="#FF864D"/>
<path d="M51.1876 26.8127C51.6362 26.8125 52 26.4489 52 26.0001C52 25.5513 51.6362 25.1877 51.1876 25.1875H47.9376C47.4888 25.1875 47.125 25.5513 47.125 26.0001C47.125 26.4489 47.4888 26.8127 47.9376 26.8127H51.1876Z" fill="#FF864D"/>
<path d="M4.875 26.0001C4.875 26.4489 4.5112 26.8125 4.0626 26.8125L0.812401 26.8127C0.363801 26.8125 0 26.4489 0 26.0001C0 25.5513 0.363799 25.1875 0.812599 25.1875H4.0626C4.5112 25.1875 4.875 25.5513 4.875 26.0001Z" fill="#FF864D"/>
</svg>
