<svg width="798" height="253" viewBox="0 0 798 253" fill="none" xmlns="http://www.w3.org/2000/svg">
<g opacity="0.05">
<path d="M174.412 0H9.51337C4.25928 0 0 4.26082 0 9.51681V101.513C0 106.769 4.25928 111.029 9.51337 111.029H174.412C179.666 111.029 183.925 106.769 183.925 101.513V9.51681C183.925 4.26082 179.666 0 174.412 0Z" fill="#4B9F5B"/>
<path d="M174.412 141.166H9.51337C4.25928 141.166 0 145.427 0 150.683V242.679C0 247.935 4.25928 252.195 9.51337 252.195H174.412C179.666 252.195 183.925 247.935 183.925 242.679V150.683C183.925 145.427 179.666 141.166 174.412 141.166Z" fill="#4B9F5B"/>
<path d="M378.949 0H215.636C210.382 0 206.123 4.26082 206.123 9.51681V101.513C206.123 106.769 210.382 111.029 215.636 111.029H378.949C384.203 111.029 388.463 106.769 388.463 101.513V9.51681C388.463 4.26082 384.203 0 378.949 0Z" fill="#4B9F5B"/>
<path d="M378.949 141.166H215.636C210.382 141.166 206.123 145.427 206.123 150.683V242.679C206.123 247.935 210.382 252.195 215.636 252.195H378.949C384.203 252.195 388.463 247.935 388.463 242.679V150.683C388.463 145.427 384.203 141.166 378.949 141.166Z" fill="#4B9F5B"/>
<path d="M583.486 0H420.174C414.919 0 410.66 4.26082 410.66 9.51681V101.513C410.66 106.769 414.919 111.029 420.174 111.029H583.486C588.74 111.029 593 106.769 593 101.513V9.51681C593 4.26082 588.74 0 583.486 0Z" fill="#4B9F5B"/>
<path d="M787.826 0H624.513C619.259 0 615 4.26082 615 9.51681V101.513C615 106.769 619.259 111.029 624.513 111.029H787.826C793.08 111.029 797.34 106.769 797.34 101.513V9.51681C797.34 4.26082 793.08 0 787.826 0Z" fill="#4B9F5B"/>
<path d="M583.486 141.166H420.174C414.919 141.166 410.66 145.427 410.66 150.683V242.679C410.66 247.935 414.919 252.195 420.174 252.195H583.486C588.74 252.195 593 247.935 593 242.679V150.683C593 145.427 588.74 141.166 583.486 141.166Z" fill="#4B9F5B"/>
<path d="M787.826 141.166H624.513C619.259 141.166 615 145.427 615 150.683V242.679C615 247.935 619.259 252.195 624.513 252.195H787.826C793.08 252.195 797.34 247.935 797.34 242.679V150.683C797.34 145.427 793.08 141.166 787.826 141.166Z" fill="#4B9F5B"/>
</g>
</svg>
