<svg width="116" height="41" viewBox="0 0 116 41" fill="none" xmlns="http://www.w3.org/2000/svg">
<mask id="mask0_15_266" style="mask-type:luminance" maskUnits="userSpaceOnUse" x="0" y="0" width="117" height="41">
<path d="M116.005 0.842773H0.498047V40.4803H116.005V0.842773Z" fill="white"/>
</mask>
<g mask="url(#mask0_15_266)">
<path d="M21.3783 18.2998C21.0601 18.6171 20.8094 18.9955 20.6413 19.4123C20.4732 19.8291 20.3911 20.2756 20.4 20.725C20.4285 21.6074 20.8006 22.4438 21.4369 23.0557C22.0731 23.6676 22.9232 24.0066 23.8058 24.0003H30.3351C30.8567 23.9895 31.3735 24.1014 31.8439 24.3271C32.3143 24.5527 32.7252 24.8858 33.0433 25.2994C33.0739 25.3396 33.1035 25.3798 33.1321 25.4199C33.5104 25.9714 33.7097 26.626 33.7029 27.2948V31.5186C33.7029 32.6955 33.4712 33.8608 33.021 34.9481C32.5708 36.0354 31.9109 37.0233 31.079 37.8555C30.2471 38.6877 29.2596 39.3478 28.1727 39.7981C27.0858 40.2485 25.9209 40.4803 24.7445 40.4803H9.45488C8.27852 40.4803 7.11368 40.2485 6.02688 39.7981C4.94009 39.3477 3.95262 38.6876 3.12088 37.8554C2.28914 37.0232 1.62942 36.0353 1.17939 34.948C0.729361 33.8607 0.497839 32.6954 0.498047 31.5186V9.80285C0.498047 7.42649 1.44171 5.14746 3.12144 3.46712C4.80118 1.78678 7.07938 0.842773 9.45488 0.842773L24.7445 0.842773C27.1201 0.842773 29.3985 1.78673 31.0785 3.46702C32.7584 5.14732 33.7025 7.42635 33.7029 9.80285L33.6363 14.0315C33.6304 14.7039 33.4221 15.3589 33.0385 15.9111C33.0116 15.9475 32.9846 15.9856 32.9561 16.0221C32.8653 16.14 32.7668 16.2519 32.6612 16.3568C32.0144 16.9836 31.1468 17.3301 30.2463 17.3211H23.7455C23.3071 17.3205 22.8728 17.4064 22.4677 17.5741C22.0625 17.7418 21.6945 17.9879 21.3846 18.2982" fill="#0A243E"/>
<path d="M32.9504 17.4034C32.9155 17.4404 32.8807 17.4769 32.8458 17.5128C32.2486 18.0936 31.4461 18.4145 30.6133 18.4058H23.9159C23.317 18.4001 22.7397 18.6294 22.3079 19.0445C21.876 19.4597 21.624 20.0275 21.6057 20.6264C21.6011 20.9251 21.6559 21.2217 21.767 21.499C21.8781 21.7763 22.0432 22.0288 22.2527 22.2416C22.4622 22.4545 22.712 22.6235 22.9875 22.7389C23.263 22.8542 23.5586 22.9136 23.8572 22.9136H30.6133C31.4461 22.9049 32.2486 23.2258 32.8458 23.8066C32.8807 23.8415 32.9155 23.878 32.9504 23.916C33.3181 24.3207 33.5777 24.8117 33.7052 25.3436V15.9854C33.5778 16.5172 33.3182 17.0082 32.9504 17.4129M23.9666 22.0349C23.6995 22.0346 23.4385 21.955 23.2165 21.8064C22.9946 21.6577 22.8217 21.4465 22.7197 21.1995C22.6177 20.9526 22.5912 20.6809 22.6435 20.4189C22.6958 20.1568 22.8246 19.9162 23.0135 19.7273C23.2025 19.5385 23.4433 19.41 23.7053 19.3579C23.9673 19.3059 24.2388 19.3328 24.4856 19.4351C24.7323 19.5374 24.9432 19.7107 25.0916 19.9329C25.2399 20.1551 25.3191 20.4163 25.3191 20.6835C25.3191 20.8611 25.2841 21.0369 25.2161 21.201C25.1481 21.3651 25.0485 21.5141 24.9229 21.6396C24.7973 21.7651 24.6482 21.8646 24.4841 21.9325C24.32 22.0003 24.1442 22.0351 23.9666 22.0349Z" fill="#8BB42E"/>
<path d="M46.437 33.3283C46.0533 34.28 45.6855 35.1175 45.3747 35.9772C45.3404 36.1534 45.2716 36.3212 45.1723 36.4708C45.073 36.6205 44.9451 36.749 44.796 36.8491C44.6469 36.9491 44.4796 37.0187 44.3035 37.0539C44.1275 37.0891 43.9462 37.0892 43.7701 37.0541C43.677 37.0423 43.5827 37.0423 43.4895 37.0541C42.9202 37.1438 42.3378 37.0222 41.8519 36.7123C41.3659 36.4024 41.01 35.9254 40.8511 35.3713C39.6979 32.5797 38.6641 29.7452 37.7497 26.868C37.6768 26.638 37.7276 26.5508 37.9559 26.4572C38.2847 26.2866 38.648 26.1929 39.0183 26.1829C39.3886 26.173 39.7563 26.2471 40.0939 26.3997C40.4314 26.5524 40.73 26.7796 40.9672 27.0643C41.2043 27.3489 41.3739 27.6837 41.4631 28.0433C42.0736 29.7881 42.665 31.5328 43.2945 33.3727L44.6279 29.4534C44.8134 28.9093 44.9942 28.3621 45.186 27.8197C45.276 27.4562 45.4474 27.118 45.6871 26.8304C45.9268 26.5429 46.2287 26.3136 46.57 26.1598C46.9112 26.0059 47.2829 25.9317 47.6571 25.9425C48.0312 25.9534 48.398 26.0491 48.7298 26.2224C48.9898 26.3144 48.9613 26.4429 48.8883 26.6475C48.6568 27.2582 48.4475 27.8784 48.2192 28.489C48.1553 28.6461 48.1519 28.8213 48.2097 28.9807C48.6854 30.394 49.161 31.8104 49.6462 33.2236C49.6462 33.2443 49.6938 33.2538 49.7477 33.2839C50.236 31.8426 50.7228 30.4051 51.208 28.9712C51.3586 28.5287 51.4934 28.0814 51.6678 27.6484C51.7807 27.3002 51.9692 26.9814 52.2199 26.7148C52.4705 26.4482 52.7771 26.2404 53.1175 26.1063C53.458 25.9723 53.8239 25.9153 54.1889 25.9395C54.554 25.9637 54.9092 26.0684 55.229 26.2462C55.5223 26.3525 55.3431 26.5254 55.2988 26.6507C54.6645 28.4081 54.0462 30.1672 53.3961 31.9135C52.876 33.2966 52.2957 34.6559 51.774 36.0374C51.6886 36.361 51.4899 36.6431 51.214 36.8323C50.9381 37.0216 50.6034 37.1054 50.2709 37.0684C48.2874 37.0446 47.8514 36.794 47.1093 34.9668C46.9 34.4513 46.6939 33.9342 46.4513 33.3283" fill="#8BB42E"/>
<path d="M72.2867 13.9524V9.60009C72.2396 9.31819 72.3029 9.02895 72.4636 8.79259C72.6243 8.55624 72.8698 8.39097 73.1492 8.33118C73.946 8.05524 74.7813 7.90695 75.6243 7.89182C76.4801 7.82278 77.3403 7.83127 78.1945 7.9172C78.6504 7.94626 79.0792 8.14351 79.398 8.47077C79.5565 8.63731 79.6485 8.64683 79.7959 8.47077C79.9795 8.25294 80.2347 8.10782 80.5158 8.06154C81.9634 7.70155 83.4866 7.79512 84.8792 8.3296C85.5036 8.59249 86.0349 9.03666 86.4043 9.60471C86.7737 10.1728 86.9644 10.8386 86.9516 11.5161C87.0166 13.8541 86.9595 16.1952 86.9722 18.5332C86.9722 18.8504 86.8818 18.9361 86.5822 18.9234C86.1147 18.9364 85.6472 18.897 85.1884 18.806C84.8281 18.7494 84.5021 18.5599 84.2744 18.2749C84.0467 17.9899 83.9338 17.6299 83.958 17.2659C83.9406 16.5807 83.958 15.8939 83.958 15.2039C83.958 14.1127 83.958 13.0198 83.958 11.9285C83.9831 11.7565 83.9682 11.581 83.9146 11.4156C83.861 11.2502 83.77 11.0994 83.6487 10.9749C83.5274 10.8504 83.3791 10.7554 83.2153 10.6975C83.0514 10.6395 82.8764 10.62 82.7038 10.6406C81.2039 10.5851 81.2039 10.5851 81.2039 12.0824C81.2039 14.2031 81.1912 16.3253 81.215 18.446C81.215 18.8504 81.0977 18.9361 80.7203 18.9218C79.9878 18.8917 79.2537 18.8948 78.5211 18.9218C78.1787 18.9345 78.0772 18.8536 78.0804 18.492C78.0994 16.1841 78.0899 13.8763 78.0899 11.5669C78.0899 10.9451 77.9408 10.7469 77.3272 10.6755C76.7539 10.598 76.1716 10.619 75.6053 10.7374C75.3484 10.796 75.2644 10.896 75.2676 11.172C75.2919 13.1673 75.3025 15.1632 75.2993 17.1596C75.3221 17.3592 75.3047 17.5613 75.2482 17.7541C75.1917 17.9468 75.0972 18.1263 74.9703 18.2819C74.8433 18.4376 74.6865 18.5663 74.5091 18.6603C74.3317 18.7544 74.1373 18.8121 73.9373 18.8298C73.5373 18.8946 73.1326 18.9254 72.7275 18.9218C72.3945 18.9456 72.2756 18.8568 72.2804 18.4888C72.3057 16.9756 72.2899 15.4625 72.2899 13.9509" fill="#0A243E"/>
<path d="M48.2008 11.7302C48.1268 10.7932 47.7276 9.91167 47.0723 9.23817C46.417 8.56467 45.5469 8.14166 44.6126 8.04241C43.2595 7.80589 41.8763 7.79732 40.5203 8.01703C39.7721 8.08571 39.0538 8.34451 38.4337 8.76886C38.233 8.89685 38.0691 9.07483 37.9579 9.28532C37.8467 9.49582 37.7921 9.7316 37.7995 9.96956C37.8249 13.6177 37.8137 17.2658 37.8122 20.9139C37.7992 21.2871 37.8354 21.6604 37.92 22.0242C37.9674 22.2956 38.1149 22.5393 38.3334 22.707C38.5519 22.8747 38.8253 22.9543 39.0996 22.9299C39.6884 22.9071 40.2745 23.0189 40.8136 23.2566V18.6981C41.8057 18.9454 42.8339 19.0136 43.85 18.8995C44.8222 18.8491 45.7545 18.4969 46.5175 17.892C47.2804 17.2871 47.8361 16.4595 48.1072 15.5242C48.4251 14.2826 48.4592 12.9852 48.2071 11.7286M45.2088 14.1998C45.1445 14.8361 44.8376 15.4232 44.3519 15.8391C43.8662 16.255 43.239 16.4677 42.6006 16.4331C42.1249 16.4235 41.6492 16.33 41.164 16.2745C40.8866 16.2427 40.7914 16.1047 40.8025 15.8129C40.8279 15.05 40.8105 14.287 40.8105 13.5241C40.8105 12.731 40.8232 11.938 40.8105 11.1449C40.8105 10.88 40.858 10.7468 41.145 10.7166C41.7739 10.6148 42.4128 10.5898 43.0477 10.6421C43.3903 10.6762 43.7222 10.7801 44.0232 10.9473C44.3242 11.1146 44.5878 11.3416 44.7978 11.6145C45.0078 11.8875 45.1597 12.2005 45.2443 12.5343C45.3289 12.8682 45.3444 13.2158 45.2897 13.5558C45.2803 13.7733 45.2569 13.99 45.2199 14.2045" fill="#0A243E"/>
<path d="M99.2796 14.9796C100.236 14.7505 101.22 14.6581 102.202 14.7052C103.028 14.7411 103.855 14.6497 104.653 14.434C104.954 14.3493 105.228 14.1857 105.445 13.9602C105.662 13.7346 105.815 13.4552 105.888 13.1508C106.006 12.649 106.033 12.1299 105.968 11.6186C105.984 10.7569 105.682 9.91937 105.119 9.26665C104.557 8.61393 103.773 8.19192 102.918 8.08151C101.583 7.81285 100.205 7.84754 98.8848 8.18302C98.0912 8.34505 97.3671 8.74834 96.8114 9.33775C96.2557 9.92715 95.8956 10.6739 95.7803 11.4758C95.531 12.7635 95.537 14.0876 95.7977 15.373C95.9084 16.1429 96.2404 16.864 96.7533 17.4486C97.2662 18.0332 97.9379 18.4561 98.6866 18.6658C100.32 19.1604 102.051 19.2394 103.722 18.8958C104.167 18.834 104.579 18.6256 104.892 18.3036C105.205 17.9816 105.403 17.5643 105.452 17.1177C105.501 16.8243 105.492 16.5293 105.52 16.2358C105.549 15.9424 105.441 15.898 105.175 15.9376C104.382 16.0534 103.603 16.1724 102.812 16.2422C101.885 16.3754 100.942 16.3594 100.02 16.1946C99.8264 16.1681 99.6398 16.1036 99.4711 16.0048C99.3024 15.906 99.1549 15.7748 99.037 15.6188C98.7849 15.2302 98.8325 15.0986 99.2796 14.9844M98.796 12.962C98.6581 11.7709 98.9292 11.1079 99.6887 10.7113C100.167 10.4834 100.698 10.388 101.225 10.4352C101.753 10.4823 102.258 10.6703 102.689 10.9794C102.789 11.0669 102.866 11.1779 102.912 11.3025C102.959 11.4271 102.974 11.5614 102.956 11.6932C102.938 11.825 102.887 11.9503 102.809 12.0577C102.73 12.1651 102.626 12.2513 102.506 12.3086C102.075 12.529 101.596 12.6381 101.113 12.6258C100.326 12.5959 99.5408 12.711 98.796 12.9652" fill="#0A243E"/>
<path d="M62.8575 14.9864C63.8149 14.759 64.7975 14.6556 65.7812 14.6787C66.1697 14.6787 66.5613 14.704 66.9498 14.6787C67.3379 14.6446 67.7227 14.5804 68.1009 14.4867C68.4936 14.405 68.8488 14.1971 69.1124 13.8947C69.3761 13.5924 69.5337 13.2121 69.5612 12.8118C69.614 12.3151 69.6054 11.8138 69.5358 11.3192C69.5028 10.5372 69.1986 9.79107 68.6755 9.20901C68.1524 8.62694 67.443 8.24525 66.6691 8.1295C65.2167 7.79783 63.7039 7.8404 62.2724 8.25322C61.5771 8.42095 60.9437 8.78282 60.446 9.2967C59.9483 9.81058 59.6068 10.4553 59.4612 11.1558C59.0754 12.7223 59.1038 14.3622 59.5436 15.9143C59.6886 16.5007 59.9744 17.0429 60.3761 17.4939C60.7778 17.945 61.2834 18.2913 61.8491 18.5028C63.6567 19.1836 65.6272 19.3052 67.5048 18.8518C67.9369 18.7591 68.3259 18.5252 68.6104 18.1868C68.8949 17.8485 69.0587 17.4251 69.076 16.9833C69.2267 15.8857 69.2045 15.873 68.1152 16.0411L68.0248 16.0633C66.7633 16.2748 65.4829 16.3518 64.2052 16.2933C63.9079 16.3093 63.6109 16.256 63.3377 16.1377C63.0645 16.0193 62.8225 15.8391 62.6307 15.6113C62.377 15.2528 62.4389 15.1037 62.8543 14.9911M62.339 12.4533C62.3265 12.1609 62.3789 11.8693 62.4925 11.5995C62.606 11.3297 62.7779 11.0884 62.9957 10.893C63.2135 10.6975 63.4719 10.5527 63.7523 10.469C64.0327 10.3853 64.3281 10.3647 64.6174 10.4088C65.1488 10.4211 65.6671 10.5767 66.1174 10.8592C66.2587 10.9297 66.3763 11.0399 66.4558 11.1763C66.5354 11.3127 66.5733 11.4693 66.5651 11.627C66.5568 11.7847 66.5027 11.9366 66.4094 12.0639C66.316 12.1913 66.1875 12.2886 66.0397 12.3439C65.6593 12.5249 65.2432 12.6186 64.822 12.6183C64.0615 12.6188 63.3036 12.7088 62.5641 12.8863C62.1265 13.01 62.4928 12.5437 62.3406 12.4533" fill="#0A243E"/>
<path d="M84.3576 33.1111C85.2365 32.8986 86.1397 32.8036 87.0436 32.8288C87.9499 32.878 88.8586 32.7909 89.7391 32.5703C90.0513 32.4923 90.336 32.3298 90.5619 32.1007C90.7879 31.8715 90.9465 31.5845 91.0202 31.2712C91.1447 30.739 91.1689 30.1881 91.0915 29.647C91.0851 28.7926 90.7654 27.9702 90.1932 27.3358C89.621 26.7014 88.836 26.2991 87.987 26.2051C86.6962 25.9599 85.3678 25.994 84.0913 26.305C83.3184 26.4485 82.6072 26.823 82.0515 27.3792C81.4958 27.9353 81.1218 28.647 80.9788 29.4202C80.6614 30.8556 80.6744 32.3445 81.0169 33.7741C81.1635 34.4896 81.5058 35.1503 82.0059 35.6824C82.5059 36.2145 83.1439 36.5972 83.8487 36.7878C85.3455 37.2457 86.9282 37.35 88.4722 37.0923C88.7996 37.0837 89.1213 37.0044 89.4154 36.86C89.7094 36.7156 89.9688 36.5095 90.1759 36.2556C90.383 36.0017 90.533 35.7062 90.6155 35.389C90.6979 35.0719 90.7111 34.7407 90.6539 34.4181C90.6539 34.1342 90.5699 34.0279 90.2718 34.0787C89.7359 34.1707 89.1936 34.2468 88.6514 34.3071C87.5127 34.4972 86.3512 34.5084 85.2091 34.3404C84.9904 34.319 84.7793 34.2486 84.5915 34.1344C84.4037 34.0201 84.2441 33.865 84.1246 33.6806C83.966 33.403 83.9771 33.2047 84.3608 33.1095M83.8851 30.8081C83.8332 30.5052 83.8531 30.1944 83.9431 29.9006C84.0332 29.6068 84.1909 29.3383 84.4036 29.1166C84.6162 28.8949 84.8779 28.7262 85.1677 28.6241C85.4574 28.522 85.767 28.4894 86.0716 28.5288C86.6181 28.5245 87.1556 28.6681 87.6271 28.9444C87.7797 29.0105 87.908 29.1222 87.9946 29.2642C88.0812 29.4061 88.1218 29.5715 88.1107 29.7374C88.0965 29.909 88.0342 30.0731 87.931 30.2108C87.8278 30.3486 87.6878 30.4544 87.5272 30.5162C86.9828 30.7074 86.4072 30.7941 85.8306 30.7716C85.2556 30.7705 84.6841 30.8604 84.1372 31.0381C83.8709 31.1459 83.8994 30.9699 83.8851 30.8144" fill="#8BB42E"/>
<path d="M66.1888 30.3832C66.2693 29.372 65.9537 28.369 65.3088 27.5862C64.6638 26.8034 63.7399 26.302 62.7323 26.1879C61.6035 26.0397 60.4639 25.9903 59.3265 26.0404C59.0053 26.0093 58.6812 26.0509 58.3782 26.1621C58.0753 26.2733 57.8012 26.4513 57.5763 26.6828C57.3514 26.9143 57.1815 27.1935 57.0791 27.4996C56.9766 27.8058 56.9443 28.131 56.9846 28.4513C56.9941 28.7575 57.0734 28.8019 57.3667 28.7226C58.5135 28.4142 59.7037 28.2994 60.8883 28.3831C61.5135 28.3927 62.1316 28.5175 62.7117 28.7511C62.8549 28.7955 62.9802 28.8845 63.0692 29.0052C63.1582 29.126 63.2063 29.272 63.2064 29.422C63.2012 29.5704 63.1473 29.713 63.053 29.8277C62.9587 29.9424 62.8293 30.0228 62.6847 30.0565C62.4648 30.1335 62.2389 30.1919 62.0093 30.231C61.0056 30.4023 59.9829 30.2516 58.9777 30.4134C58.3964 30.443 57.838 30.6497 57.3775 31.0058C56.917 31.3619 56.5763 31.8503 56.4011 32.4056C56.2177 33.0027 56.1473 33.6288 56.1934 34.2518C56.2025 34.9409 56.4701 35.6015 56.9433 36.1024C57.4164 36.6034 58.0605 36.9081 58.7477 36.9562C60.0358 37.0999 61.335 37.1147 62.626 37.0006C63.1309 37.0079 63.6314 36.907 64.0941 36.7047C64.5567 36.5024 64.9706 36.2034 65.3081 35.8278C65.6457 35.4521 65.8989 35.0086 66.0508 34.5269C66.2027 34.0452 66.2497 33.5366 66.1888 33.0353C66.1888 32.5991 66.1888 32.1629 66.1888 31.7251C66.1888 31.2731 66.1983 30.821 66.1888 30.369M63.2016 33.6523C63.1872 33.881 63.0884 34.0963 62.9243 34.2563C62.7603 34.4163 62.5427 34.5097 62.3137 34.5183C61.5516 34.5927 60.783 34.5676 60.0273 34.4437C59.8722 34.4257 59.7233 34.3726 59.5917 34.2885C59.4602 34.2044 59.3494 34.0916 59.2678 33.9584C59.2127 33.8716 59.1777 33.7735 59.1654 33.6714C59.153 33.5693 59.1637 33.4657 59.1965 33.3683C59.2293 33.2708 59.2835 33.1819 59.3551 33.1081C59.4267 33.0343 59.5139 32.9774 59.6103 32.9417C60.063 32.7256 60.5615 32.6232 61.0627 32.6435C61.8764 32.6707 62.67 32.3872 63.2825 31.8504C63.3201 32.4513 63.2913 33.0545 63.1968 33.6491" fill="#8BB42E"/>
<path d="M93.8441 29.3474C93.8441 28.0065 93.8441 26.6657 93.8441 25.3249C93.8441 23.9815 94.3086 23.4707 95.6532 23.3232C96.8328 23.1932 96.8329 23.1931 96.8329 24.351C96.8329 24.8269 96.8535 25.3186 96.8329 25.8008C96.8138 26.1259 96.9391 26.1941 97.2356 26.1894C98.1092 26.1735 98.9797 26.1894 99.8565 26.1783C100.174 26.1783 100.293 26.2449 100.237 26.5986C100.226 26.9211 100.148 27.2378 100.008 27.5286C99.8684 27.8194 99.6698 28.078 99.4249 28.2881C99.1801 28.4982 98.8943 28.6551 98.5857 28.749C98.277 28.8429 97.9523 28.8716 97.632 28.8334C96.8392 28.8334 96.8392 28.8335 96.8392 29.6392C96.8498 30.9324 96.8624 32.2257 96.8772 33.5189C96.8562 33.6556 96.8658 33.7952 96.9052 33.9278C96.9447 34.0603 97.0131 34.1824 97.1055 34.2853C97.1979 34.3882 97.3119 34.4693 97.4394 34.5227C97.567 34.5761 97.7048 34.6006 97.8429 34.5943C98.419 34.6322 98.9977 34.5922 99.5632 34.4753C99.8216 34.4341 99.9675 34.4753 100.02 34.7735C100.083 35.0785 100.103 35.3908 100.08 35.7014C100.089 36.0805 99.9488 36.4479 99.6901 36.7251C99.4314 37.0023 99.0745 37.1671 98.6959 37.1844C97.8762 37.36 97.0228 37.2878 96.2442 36.9772C95.4656 36.6665 94.7969 36.1314 94.3229 35.4397C93.9819 34.8226 93.8173 34.1235 93.8472 33.419C93.8472 32.0628 93.8472 30.7067 93.8472 29.3505" fill="#8BB42E"/>
<path d="M69.0743 21.6289C69.5846 21.8587 70.1424 21.9625 70.7011 21.9318C70.857 21.9178 71.0141 21.9353 71.1631 21.9833C71.3121 22.0313 71.4499 22.1088 71.5683 22.2112C71.6867 22.3137 71.7833 22.4389 71.8522 22.5795C71.9212 22.7201 71.9611 22.8731 71.9696 23.0295C72.0175 23.3375 72.0408 23.6488 72.0393 23.9605C72.0446 27.7038 72.0446 31.4476 72.0393 35.1919C72.0746 35.4104 72.0621 35.634 72.0028 35.8472C71.9436 36.0605 71.8388 36.2583 71.6959 36.4273C71.5529 36.5962 71.3751 36.7322 71.1747 36.8258C70.9742 36.9195 70.7559 36.9687 70.5346 36.97C69.0664 37.2222 69.0664 37.2222 69.0664 35.782V21.6289" fill="#8BB42E"/>
<path d="M54.1246 19.2138C53.568 18.9261 52.9691 18.7291 52.3504 18.6301C52.0179 18.6 51.7093 18.4447 51.4871 18.1955C51.2648 17.9464 51.1455 17.6221 51.1533 17.2882C51.06 15.2015 51.0764 13.1112 51.2024 11.0262C51.2448 10.1701 51.6224 9.36509 52.2536 8.78537C52.8847 8.20565 53.7186 7.89781 54.5749 7.92846C55.7435 7.88404 56.9152 7.92846 58.0854 7.90625C58.3296 7.90625 58.4025 7.98239 58.412 8.22348C58.4525 8.70569 58.4128 9.19127 58.2947 9.66052C58.2374 9.93892 58.0876 10.1897 57.8696 10.372C57.6517 10.5544 57.3784 10.6575 57.0944 10.6645C56.5823 10.7074 56.0654 10.6994 55.5548 10.7502C55.3692 10.7456 55.1847 10.7794 55.0128 10.8495C54.8409 10.9197 54.6853 11.0246 54.5559 11.1578C54.4265 11.291 54.326 11.4495 54.2608 11.6234C54.1956 11.7972 54.1671 11.9827 54.1769 12.1682C54.0549 14.3015 54.1516 16.4397 54.1246 18.5746C54.1246 18.7618 54.1246 18.9473 54.1246 19.209" fill="#0A243E"/>
<path d="M111.704 19.212C111.15 18.926 110.555 18.73 109.939 18.6315C109.595 18.5878 109.28 18.4173 109.055 18.1533C108.83 17.8892 108.712 17.5507 108.723 17.204C108.709 15.2546 108.682 13.3053 108.723 11.3575C108.717 10.9063 108.802 10.4584 108.971 10.0403C109.141 9.62228 109.393 9.24246 109.712 8.92329C110.031 8.60413 110.41 8.35208 110.828 8.182C111.246 8.01192 111.694 7.92726 112.145 7.93302C113.313 7.88385 114.485 7.9235 115.655 7.9124C115.885 7.9124 115.993 7.96474 115.998 8.21853C116.025 8.68503 115.989 9.15313 115.888 9.60957C115.835 9.90469 115.68 10.1719 115.451 10.3651C115.222 10.5583 114.932 10.6653 114.633 10.6675C114.136 10.7072 113.635 10.7056 113.14 10.7516C112.784 10.7469 112.44 10.8827 112.183 11.1297C111.926 11.3766 111.777 11.7149 111.767 12.0712C111.686 12.9714 111.665 13.8758 111.702 14.7788C111.691 16.238 111.702 17.6989 111.702 19.22" fill="#0A243E"/>
<path d="M75.355 21.813C75.7843 21.8898 76.2191 21.9307 76.6551 21.9351C76.9554 21.9119 77.2527 22.0084 77.482 22.2037C77.7113 22.3989 77.8541 22.677 77.8792 22.9772C77.9259 23.2219 77.9498 23.4704 77.9506 23.7195C77.958 27.5707 77.9622 31.4223 77.9633 35.2745C78.0007 35.6174 77.9129 35.9622 77.7159 36.2452C77.4094 36.5336 77.0411 36.7481 76.639 36.8723C76.237 36.9966 75.812 37.0273 75.3963 36.9622C75.187 36.9622 75.0886 36.84 75.0791 36.6354C75.0791 36.5418 75.0791 36.4483 75.0791 36.3547C75.0791 31.7084 75.0791 27.0626 75.0791 22.4173C75.0791 22.1857 74.9856 21.8907 75.3502 21.8146" fill="#8BB42E"/>
<path d="M89.8453 7.71729C90.3863 7.97303 90.9825 8.08969 91.5799 8.05672C91.8625 8.04043 92.1409 8.13106 92.3597 8.3106C92.5785 8.49015 92.7218 8.74546 92.7612 9.02584C92.8253 9.33044 92.8578 9.64087 92.8579 9.95215C92.8579 12.3218 92.8579 14.6899 92.8579 17.0596C92.8939 17.2737 92.8839 17.4929 92.8284 17.7027C92.773 17.9126 92.6734 18.1082 92.5364 18.2764C92.3994 18.4447 92.2281 18.5818 92.0339 18.6786C91.8397 18.7754 91.6271 18.8296 91.4103 18.8377L91.3199 18.8599C89.9183 19.1216 89.8438 19.0613 89.8438 17.6671V7.71729" fill="#0A243E"/>
<path d="M89.7892 5.67084C89.7883 5.24725 89.9542 4.84035 90.2509 4.53816C90.5476 4.23598 90.9514 4.06282 91.3747 4.05615C91.8016 4.05615 92.2109 4.22577 92.5127 4.52769C92.8145 4.82961 92.9841 5.2391 92.9841 5.66608C92.9841 6.09306 92.8145 6.50255 92.5127 6.80447C92.2109 7.10639 91.8016 7.27601 91.3747 7.27601C91.1649 7.27602 90.9572 7.23437 90.7636 7.15348C90.5699 7.07258 90.3943 6.95404 90.2468 6.80473C90.0993 6.65542 89.9829 6.47831 89.9044 6.28367C89.8258 6.08903 89.7867 5.88073 89.7892 5.67084Z" fill="#0A243E"/>
<path d="M75.3559 21.8128C75.2847 21.872 75.2302 21.9488 75.198 22.0357C75.1657 22.1225 75.1567 22.2163 75.172 22.3077C75.172 27.0142 75.172 31.7198 75.172 36.4243C75.172 36.7684 75.264 36.8779 75.6176 36.8811C76.3733 36.9378 77.1231 36.7117 77.7216 36.2466C77.6649 36.383 77.5772 36.5044 77.4654 36.601C77.3537 36.6976 77.221 36.7669 77.0779 36.8033C76.4749 37.0129 75.8358 37.0987 75.199 37.0555C75.0785 37.0555 74.9786 37.0317 75.004 36.8747C75.0478 36.7414 75.0603 36.5997 75.0404 36.4607C75.0404 31.715 75.0404 26.9693 75.0404 22.2236C75.061 22.0846 75.0486 21.9428 75.004 21.8096C75.1292 21.4607 75.2434 21.8334 75.3623 21.8096" fill="#93BB2F"/>
<path d="M74.9998 21.8065C75.1394 21.9509 75.0807 22.1317 75.0807 22.2966C75.0807 26.9916 75.0807 31.686 75.0807 36.3799C75.0807 36.5385 75.1394 36.7257 74.9998 36.8716C74.9998 36.1864 74.9824 35.4996 74.9824 34.8097C74.9824 30.6603 74.9824 26.511 74.9824 22.3617C74.9824 22.1745 74.9935 21.9889 74.9998 21.8018" fill="#8BB42E"/>
<path d="M37.9121 21.3053V9.56787H37.9581V21.318L37.9121 21.2989" fill="#081F3D"/>
</g>
</svg>
