<svg width="49" height="49" viewBox="0 0 49 49" fill="none" xmlns="http://www.w3.org/2000/svg">
<path d="M11.4844 33.6875C11.9072 33.6875 12.25 33.3447 12.25 32.9219C12.25 32.499 11.9072 32.1562 11.4844 32.1562C11.0615 32.1562 10.7188 32.499 10.7188 32.9219C10.7188 33.3447 11.0615 33.6875 11.4844 33.6875Z" fill="#1A2844"/>
<path d="M5.35938 38.2812H14.5469C15.156 38.2812 15.7403 38.0393 16.171 37.6085C16.6018 37.1778 16.8437 36.5935 16.8438 35.9844V29.8594C16.8437 29.2502 16.6018 28.666 16.171 28.2352C15.7403 27.8045 15.156 27.5625 14.5469 27.5625H5.35938C4.75021 27.5625 4.16599 27.8045 3.73524 28.2352C3.30449 28.666 3.0625 29.2502 3.0625 29.8594V35.9844C3.0625 36.5935 3.30449 37.1778 3.73524 37.6085C4.16599 38.0393 4.75021 38.2812 5.35938 38.2812ZM11.4844 30.625C11.9387 30.625 12.3827 30.7597 12.7604 31.0121C13.1382 31.2645 13.4326 31.6232 13.6064 32.0429C13.7803 32.4626 13.8257 32.9244 13.7371 33.37C13.6485 33.8155 13.4297 34.2248 13.1085 34.546C12.7873 34.8672 12.378 35.086 11.9325 35.1746C11.4869 35.2632 11.0251 35.2178 10.6054 35.0439C10.1857 34.8701 9.82698 34.5757 9.57459 34.1979C9.32221 33.8202 9.1875 33.3762 9.1875 32.9219C9.1875 32.3127 9.42949 31.7285 9.86024 31.2977C10.291 30.867 10.8752 30.625 11.4844 30.625Z" fill="#1A2844"/>
<path d="M42.1094 19.9062H9.95312C8.93822 19.9075 7.96522 20.3112 7.24757 21.0288C6.52993 21.7465 6.12622 22.7195 6.125 23.7344V26.0312H14.5469C15.5618 26.0325 16.5348 26.4362 17.2524 27.1538C17.9701 27.8715 18.3738 28.8445 18.375 29.8594V35.9844C18.3738 36.9993 17.9701 37.9723 17.2524 38.6899C16.5348 39.4076 15.5618 39.8113 14.5469 39.8125H6.125V42.1094C6.12622 43.1243 6.52993 44.0973 7.24757 44.8149C7.96522 45.5326 8.93822 45.9363 9.95312 45.9375H42.1094C43.1243 45.9363 44.0973 45.5326 44.8149 44.8149C45.5326 44.0973 45.9363 43.1243 45.9375 42.1094V23.7344C45.9363 22.7195 45.5326 21.7465 44.8149 21.0288C44.0973 20.3112 43.1243 19.9075 42.1094 19.9062ZM37.5156 42.875H32.9219C32.7188 42.875 32.5241 42.7943 32.3805 42.6508C32.2369 42.5072 32.1562 42.3124 32.1562 42.1094C32.1562 41.9063 32.2369 41.7116 32.3805 41.568C32.5241 41.4244 32.7188 41.3438 32.9219 41.3438H37.5156C37.7187 41.3438 37.9134 41.4244 38.057 41.568C38.2006 41.7116 38.2812 41.9063 38.2812 42.1094C38.2812 42.3124 38.2006 42.5072 38.057 42.6508C37.9134 42.7943 37.7187 42.875 37.5156 42.875ZM42.1094 42.875H40.5781C40.3751 42.875 40.1803 42.7943 40.0367 42.6508C39.8932 42.5072 39.8125 42.3124 39.8125 42.1094C39.8125 41.9063 39.8932 41.7116 40.0367 41.568C40.1803 41.4244 40.3751 41.3438 40.5781 41.3438H42.1094C42.3124 41.3438 42.5072 41.4244 42.6508 41.568C42.7943 41.7116 42.875 41.9063 42.875 42.1094C42.875 42.3124 42.7943 42.5072 42.6508 42.6508C42.5072 42.7943 42.3124 42.875 42.1094 42.875Z" fill="#1A2844"/>
<path d="M11.5703 18.3749H18.7925C20.6392 16.3185 22.3334 14.1302 23.8617 11.8273C25.0252 10.0609 26.0883 8.2305 27.0459 6.34462L19.1822 4.61354C18.9811 4.56686 18.7706 4.5818 18.5781 4.65641C18.5101 4.68539 18.4475 4.7255 18.3928 4.77509C18.3206 4.8425 18.2649 4.92551 18.2297 5.01779C17.9379 6.17885 17.586 7.32398 17.1755 8.44855C17.0154 8.88649 16.5063 10.2439 15.7384 11.8173C14.5943 14.1498 13.1965 16.3489 11.5703 18.3749Z" fill="#1A2844"/>
<path d="M40.7825 18.3752C43.5901 13.5518 45.5952 10.0077 45.8357 9.4396C45.9384 9.232 45.9589 8.99328 45.8931 8.77121C45.8523 8.66068 45.788 8.56036 45.7046 8.47719C45.6211 8.39403 45.5206 8.33003 45.41 8.28963L31.0622 3.10788C30.8979 3.05108 30.7198 3.04751 30.5534 3.09768C30.3869 3.14785 30.2405 3.2492 30.135 3.38733C28.7536 6.62717 27.0813 9.73507 25.1385 12.6728C23.8186 14.6602 22.3778 16.5646 20.8242 18.3752H40.7825Z" fill="#1A2844"/>
</svg>
