<svg width="124" height="10" viewBox="0 0 124 10" fill="none" xmlns="http://www.w3.org/2000/svg">
<path d="M124 0C116.25 -6.77526e-07 116.25 10 108.5 10C100.75 10 100.75 -2.03258e-06 93 -2.71011e-06C85.25 -3.38763e-06 85.25 10 77.5 10C69.75 10 69.75 -4.74269e-06 62 -5.42021e-06C54.25 -6.09774e-06 54.25 9.99999 46.5 9.99999C38.75 9.99999 38.75 -7.45279e-06 31 -8.13032e-06C23.25 -8.80784e-06 23.25 9.99999 15.5 9.99999C7.75 9.99999 7.75 -1.01629e-05 5.07466e-06 -1.08404e-05" stroke="#E47126" stroke-width="5" stroke-linecap="round" stroke-linejoin="round"/>
</svg>
