<svg width="435" height="93" viewBox="0 0 435 93" fill="none" xmlns="http://www.w3.org/2000/svg">
<path d="M405.626 0.275391C421.642 0.275391 434.626 13.2592 434.626 29.2754V63.4365L434.617 64.1846C434.227 79.6063 421.797 92.036 406.375 92.4268L405.626 92.4365H29.834L29.0859 92.4268C13.6642 92.0361 1.23429 79.6064 0.84375 64.1846L0.833984 63.4365V29.2754C0.834014 13.2593 13.8179 0.27555 29.834 0.275391H42.1475V2.27539H29.834C14.9224 2.27555 2.83401 14.3638 2.83398 29.2754V63.4365C2.83405 78.348 14.9225 90.4363 29.834 90.4365H405.626C420.538 90.4365 432.626 78.3482 432.626 63.4365V29.2754C432.626 14.3637 420.538 2.27539 405.626 2.27539H243.949V0.275391H405.626Z" fill="#5BA44C"/>
</svg>
