<svg width="20" height="22" viewBox="0 0 20 22" fill="none" xmlns="http://www.w3.org/2000/svg">
<path d="M19.5891 5.43747C18.3624 5.43747 17.2306 5.0311 16.3217 4.34556C15.2794 3.55968 14.5304 2.4069 14.266 1.07821C14.2005 0.749927 14.1652 0.411144 14.1618 0.0639648H10.6577V9.63888L10.6535 14.8835C10.6535 16.2857 9.74045 17.4745 8.47474 17.8927C8.10741 18.014 7.71069 18.0715 7.29761 18.0488C6.77033 18.0199 6.27622 17.8608 5.84676 17.6038C4.93284 17.0573 4.31321 16.0657 4.29642 14.9314C4.26997 13.1585 5.70319 11.7131 7.47476 11.7131C7.82446 11.7131 8.16031 11.7702 8.47474 11.8739V9.25686V8.31608C8.14309 8.26696 7.80557 8.24135 7.46427 8.24135C5.52519 8.24135 3.71163 9.04738 2.41527 10.4995C1.43545 11.5969 0.847719 12.9969 0.757041 14.465C0.638236 16.3935 1.34393 18.2268 2.71249 19.5794C2.91358 19.778 3.12474 19.9623 3.34556 20.1323C4.51891 21.0353 5.95339 21.5248 7.46427 21.5248C7.80557 21.5248 8.14309 21.4996 8.47474 21.4505C9.88612 21.2415 11.1884 20.5954 12.216 19.5794C13.4788 18.3314 14.1765 16.6744 14.1841 14.9108L14.166 7.07891C14.7685 7.54363 15.4271 7.92818 16.1341 8.22666C17.2336 8.69054 18.3994 8.92563 19.5992 8.92521V6.38077V5.43663C19.6 5.43747 19.5899 5.43747 19.5891 5.43747Z" fill="white"/>
</svg>
