<svg width="17" height="17" viewBox="0 0 17 17" fill="none" xmlns="http://www.w3.org/2000/svg">
<path d="M16.6707 16.1495V10.3692C16.6707 7.52934 16.0595 5.36108 12.7474 5.36108C12.1263 5.33538 11.5099 5.47932 10.9644 5.77746C10.4189 6.07561 9.96485 6.51669 9.65101 7.05339H9.61189V5.61704H6.47852V16.1495H9.75148V10.9245C9.75148 9.54953 10.0074 8.22319 11.7036 8.22319C13.3798 8.22319 13.3956 9.78116 13.3956 11.0038V16.1305H16.6686L16.6707 16.1495Z" fill="white"/>
<path d="M1.15625 5.61694H4.42921V16.1462H1.15625V5.61694Z" fill="white"/>
<path d="M2.79295 0.371611C2.41558 0.36952 2.04611 0.479666 1.73146 0.688056C1.41682 0.896445 1.17121 1.19367 1.02583 1.54198C0.880447 1.89029 0.84186 2.27396 0.91497 2.64425C0.988079 3.01455 1.16958 3.35475 1.43643 3.62164C1.70327 3.88853 2.04341 4.07007 2.41364 4.14319C2.78386 4.21631 3.16746 4.17772 3.51571 4.03231C3.86396 3.88691 4.16113 3.64125 4.36949 3.32655C4.57784 3.01185 4.68796 2.64231 4.68587 2.26487C4.68587 1.76275 4.48644 1.28119 4.13145 0.926135C3.77646 0.571079 3.29499 0.371611 2.79295 0.371611Z" fill="white"/>
</svg>
