<svg fill="none" height="48" viewBox="0 0 48 48" width="48" xmlns="http://www.w3.org/2000/svg"><path d="m22 4h4v5h-4z" fill="#ff864d"/><path clip-rule="evenodd" d="m25.5 4.5h-3v4h3zm-3.5-.5v5h4v-5z" fill="#02071b" fill-rule="evenodd"/><path d="m20 3h8v3h-8z" fill="#8eb39a"/><path clip-rule="evenodd" d="m27.5 3.5h-7v2h7zm-7.5-.5v3h8v-3z" fill="#02071b" fill-rule="evenodd"/><path d="m42 26c0 9.9411-8.0589 18-18 18s-18-8.0589-18-18 8.0589-18 18-18 18 8.0589 18 18z" fill="#7f95fc"/><path clip-rule="evenodd" d="m24 43.5c9.665 0 17.5-7.835 17.5-17.5s-7.835-17.5-17.5-17.5-17.5 7.835-17.5 17.5 7.835 17.5 17.5 17.5zm0 .5c9.9411 0 18-8.0589 18-18s-8.0589-18-18-18-18 8.0589-18 18 8.0589 18 18 18z" fill="#02071b" fill-rule="evenodd"/><path d="m39 26c0 8.2843-6.7157 15-15 15s-15-6.7157-15-15 6.7157-15 15-15 15 6.7157 15 15z" fill="#eaf0fc"/><path clip-rule="evenodd" d="m24 40.5c8.0081 0 14.5-6.4919 14.5-14.5s-6.4919-14.5-14.5-14.5-14.5 6.4919-14.5 14.5 6.4919 14.5 14.5 14.5zm0 .5c8.2843 0 15-6.7157 15-15s-6.7157-15-15-15-15 6.7157-15 15 6.7157 15 15 15z" fill="#02071b" fill-rule="evenodd"/><g fill="#ff864d"><path d="m33.1924 16.8078c.1586.1586.1586.4158 0 .5745l-1.1491 1.149c-.1586.1587-.4159.1587-.5745 0-.1587-.1586-.1587-.4158 0-.5745l1.149-1.149c.1587-.1587.4159-.1587.5746 0z"/><path d="m16.5312 33.469c.1586.1586.1586.4158 0 .5745l-1.1491 1.149c-.1586.1587-.4159.1587-.5745 0-.1587-.1586-.1587-.4158 0-.5745l1.149-1.149c.1587-.1587.4159-.1587.5746 0z"/><path d="m33.1924 35.1925c-.1587.1586-.4159.1586-.5746-.0001l-1.149-1.149c-.1587-.1586-.1587-.4159 0-.5745.1586-.1587.4159-.1587.5745 0l1.1491 1.149c.1586.1587.1586.4159 0 .5746z"/><path d="m16.5312 18.5312c-.1587.1587-.4159.1587-.5746 0l-1.149-1.149c-.1587-.1587-.1587-.4159 0-.5745.1586-.1587.4159-.1587.5745 0l1.1491 1.149c.1586.1587.1586.4159 0 .5745z"/><path d="m24 13c.2244 0 .4063.1819.4063.4063v1.6249c0 .2244-.1819.4063-.4063.4063s-.4062-.1819-.4062-.4063v-1.625c0-.2243.1818-.4062.4062-.4062z"/><path d="m24 36.5625c.2244 0 .4063.1819.4063.4062v1.625c0 .2244-.1819.4063-.4063.4063s-.4062-.1819-.4062-.4063v-1.625c0-.2243.1818-.4062.4062-.4062z"/><path d="m36.5938 26.4063c.2243-.0001.4062-.1819.4062-.4063s-.1819-.4062-.4062-.4063h-1.625c-.2244 0-.4063.1819-.4063.4063s.1819.4063.4063.4063z"/><path d="m13.4375 26c0 .2244-.1819.4062-.4062.4062l-1.6251.0001c-.2243-.0001-.4062-.1819-.4062-.4063s.1819-.4063.4063-.4063h1.625c.2243 0 .4062.1819.4062.4063z"/></g><path clip-rule="evenodd" d="m23.3438 13.4062c0-.3624.2938-.6562.6562-.6562.3625 0 .6563.2938.6563.6563v1.6249c0 .3625-.2938.6563-.6563.6563-.3624 0-.6562-.2938-.6562-.6563zm.6562-.1562c-.0862 0-.1562.07-.1562.1562v1.625c0 .0863.07.1563.1562.1563.0863 0 .1563-.07.1563-.1563v-1.6249c0-.0863-.07-.1563-.1563-.1563zm-9.3691 3.3809c.2562-.2563.6718-.2563.928 0l1.1491 1.149c.2563.2563.2563.6718 0 .9281s-.6718.2563-.9281 0l-1.149-1.149c-.2563-.2563-.2563-.6718 0-.9281zm.5745.3535c-.061-.061-.16-.061-.221 0-.061.0611-.061.16 0 .221l1.1491 1.1491c.061.061.1599.061.2209 0 .0611-.0611.0611-.16 0-.221zm17.2357-.3534c.2563-.2563.6718-.2563.9281 0s.2563.6718 0 .9281l-1.1491 1.149c-.2562.2563-.6718.2563-.928 0-.2563-.2563-.2563-.6718 0-.9281zm.5745.3535c-.061-.061-.1599-.061-.2209 0l-1.1491 1.1491c-.061.061-.061.1599 0 .221.061.061.16.061.221 0l1.149-1.1491c.0611-.061.0611-.1599 0-.221zm-22.0156 9.0155c-.2499-.3624.0439-.6563.4063-.6563h1.625c.3624 0 .6563.2939.6562.6563.0001.3624-.2938.6562-.6562.6562l-1.625.0001c-.3624-.0001-.6562-.2939-.4063-.6563zm.4063-.1563c-.0863 0-.1563.07-.1563.1563s.07.1562.1563.1563l1.625-.0001c.0863 0 .1563-.0699.1562-.1562 0-.0863-.0699-.1563-.1562-.1563zm23.5625 0c-.0863 0-.1562.07-.1562.1563s.0699.1562.1562.1563h1.625c.0863-.0001.1562-.07.1562-.1563s-.0699-.1563-.1562-.1563zm-.6562.1563c0-.3624.2938-.6563.6562-.6563h1.625c.3624.0001.6562.2939.6562.6563s-.2938.6562-.6562.6563h-1.625c-.3624-.0001-.6562-.2939-.6562-.6563zm-3.0205 7.2921c.2562-.2563.6718-.2563.928 0l1.1491 1.149c.2563.2563.2563.6718 0 .9281s-.6718.2563-.9281 0l-1.149-1.149c-.2563-.2563-.2563-.6718 0-.9281zm.5745.3536c-.061-.0611-.16-.0611-.221 0-.061.061-.061.1599 0 .2209l1.1491 1.1491c.061.061.1599.061.2209 0 .0611-.061.0611-.16 0-.221zm-16.0867-.3535c.2563-.2563.6718-.2563.9281 0s.2563.6718 0 .9281l-1.1491 1.149c-.2562.2563-.6718.2563-.928 0-.2563-.2563-.2563-.6718 0-.9281zm.5745.3535c-.061-.061-.1599-.061-.2209 0l-1.1491 1.1491c-.061.061-.061.1599 0 .221.061.061.16.061.221 0l1.149-1.1491c.0611-.061.0611-.1599 0-.221zm6.9894 3.323c0-.3624.2938-.6562.6562-.6562.3625 0 .6563.2938.6563.6562v1.625c0 .3625-.2938.6563-.6562.6563-.3625 0-.6563-.2938-.6563-.6563zm.6562-.1562c-.0862 0-.1562.07-.1562.1562v1.625c0 .0863.07.1563.1562.1563.0863 0 .1563-.07.1563-.1563v-1.625c0-.0862-.07-.1562-.1563-.1562z" fill="#02071b" fill-rule="evenodd"/><path d="m23.75 18c.4832 0 .875.3918.875.875v6.3591c.5231.3026.875.8682.875 1.5159 0 .1568-.0206.3087-.0593.4533l3.303 3.303c.3417.3417.3417.8957 0 1.2374s-.8957.3417-1.2374 0l-3.303-3.303c-.1446.0387-.2965.0593-.4533.0593-.9665 0-1.75-.7835-1.75-1.75 0-.6477.3519-1.2133.875-1.5159v-6.3591c0-.4832.3918-.875.875-.875z" fill="#ff864d"/><path clip-rule="evenodd" d="m22.625 18.875c0-.6213.5037-1.125 1.125-1.125s1.125.5037 1.125 1.125v6.2212c.5278.3597.875.9661.875 1.6538 0 .1277-.012.2527-.035.374l3.2055 3.2055c.4393.4393.4393 1.1517 0 1.591s-1.1517.4393-1.591 0l-3.2055-3.2055c-.1213.023-.2463.035-.374.035-1.1046 0-2-.8954-2-2 0-.6877.3472-1.2941.875-1.6538zm1.125-.625c-.3452 0-.625.2798-.625.625v6.5033l-.1248.0722c-.449.2598-.7502.7446-.7502 1.2995 0 .8284.6716 1.5 1.5 1.5.1348 0 .265-.0177.3887-.0508l.1394-.0373 3.405 3.405c.244.2441.6398.2441.8838 0 .2441-.244.2441-.6398 0-.8838l-3.405-3.405.0373-.1394c.0331-.1237.0508-.2539.0508-.3887 0-.5549-.3012-1.0397-.7502-1.2995l-.1248-.0722v-6.5033c0-.3452-.2798-.625-.625-.625z" fill="#02071b" fill-rule="evenodd"/></svg>