<svg width="16" height="30" viewBox="0 0 16 30" fill="none" xmlns="http://www.w3.org/2000/svg">
<path fill-rule="evenodd" clip-rule="evenodd" d="M2.25 2.75C2.25 1.5074 3.2574 0.5 4.5 0.5C5.7426 0.5 6.75 1.5074 6.75 2.75V15.1924C7.8056 15.9118 8.5 17.1246 8.5 18.5C8.5 18.7554 8.476 19.0054 8.43 19.248L14.841 25.659C15.7196 26.5376 15.7196 27.9624 14.841 28.841C13.9624 29.7196 12.5376 29.7196 11.659 28.841L5.248 22.43C5.0054 22.476 4.7554 22.5 4.5 22.5C2.2908 22.5 0.5 20.7092 0.5 18.5C0.5 17.1246 1.1944 15.9118 2.25 15.1924V2.75ZM4.5 1.5C3.8096 1.5 3.25 2.0596 3.25 2.75V15.7566L3.0004 15.901C2.1024 16.4206 1.5 17.3902 1.5 18.5C1.5 20.1568 2.8432 21.5 4.5 21.5C4.7696 21.5 5.03 21.4646 5.2774 21.3984L5.5562 21.3238L12.3662 28.1338C12.8542 28.622 13.6458 28.622 14.1338 28.1338C14.622 27.6458 14.622 26.8542 14.1338 26.3662L7.3238 19.5562L7.3984 19.2774C7.4646 19.03 7.5 18.7696 7.5 18.5C7.5 17.3902 6.8976 16.4206 5.9996 15.901L5.75 15.7566V2.75C5.75 2.0596 5.1904 1.5 4.5 1.5Z" fill="#02071B"/>
</svg>
