<svg width="250" height="44" viewBox="0 0 250 44" fill="none" xmlns="http://www.w3.org/2000/svg">
<mask id="mask0_15_526" style="mask-type:luminance" maskUnits="userSpaceOnUse" x="0" y="0" width="198" height="44">
<path d="M197.683 0H0V43.527H197.683V0Z" fill="white"/>
</mask>
<g mask="url(#mask0_15_526)">
<path d="M29.2843 2.63665C32.3598 2.64085 35.308 3.86503 37.4822 6.04063C39.6564 8.21622 40.8791 11.1656 40.8819 14.2416V29.2883C40.8779 32.3635 39.6548 35.3116 37.4807 37.4862C35.3066 39.6607 32.3589 40.884 29.2843 40.888H14.2403C11.1648 40.8852 8.21597 39.6623 6.04077 37.4877C3.86556 35.3131 2.6416 32.3643 2.6374 29.2883V14.2416C2.64048 11.1647 3.86391 8.21475 6.03921 6.03907C8.2145 3.86338 11.164 2.63973 14.2403 2.63665H29.2843ZM29.2843 -0.0012207H14.2403C10.4636 -0.000940224 6.8417 1.49973 4.17119 4.17072C1.50068 6.84171 0.000280429 10.4643 0 14.2416L0 29.2883C0.00140199 33.0648 1.50233 36.6862 4.17275 39.3561C6.84317 42.026 10.4644 43.5258 14.2403 43.5258H29.2843C33.0603 43.5261 36.6818 42.0264 39.3525 39.3564C42.0231 36.6865 43.5242 33.065 43.5256 29.2883V14.2416C43.5253 10.4641 42.0248 6.84136 39.354 4.17034C36.6833 1.49933 33.0611 -0.00122071 29.2843 -0.0012207Z" fill="#49B9FD"/>
<path d="M23.4709 32.5686H19.444V23.3741C19.444 22.7649 19.444 22.7649 18.8095 22.7649C18.0533 22.7585 17.2919 22.7532 16.5358 22.7649C16.2186 22.7712 16.0906 22.6771 16.0959 22.3312C16.1139 21.3116 16.1139 20.2856 16.0959 19.2639C16.0896 18.918 16.2249 18.8239 16.5411 18.8303C17.3385 18.8419 18.1411 18.8186 18.9385 18.8419C19.3192 18.8535 19.4598 18.7425 19.4482 18.349C19.4249 17.4637 19.4366 16.5784 19.4545 15.6942C19.428 15.0589 19.5349 14.4251 19.7685 13.8337C20.002 13.2423 20.3569 12.7064 20.8103 12.2607C21.2638 11.815 21.8056 11.4693 22.4008 11.246C22.9961 11.0227 23.6315 10.9267 24.2662 10.9642C25.1745 10.9642 26.0829 11.0224 26.9966 11.0467C27.2843 11.0584 27.4196 11.1578 27.4196 11.4698C27.4016 12.3847 27.4016 13.2922 27.4196 14.2071C27.4196 14.5244 27.3086 14.6302 26.9966 14.6228C26.3515 14.6048 25.7075 14.6111 25.0625 14.6291C24.8476 14.6048 24.63 14.6294 24.426 14.7011C24.222 14.7727 24.0369 14.8895 23.8843 15.0428C23.7318 15.1961 23.6159 15.3818 23.5452 15.5862C23.4745 15.7906 23.4509 16.0083 23.4762 16.2231C23.4646 16.9634 23.4825 17.7123 23.4646 18.4558C23.4582 18.7604 23.582 18.8366 23.8569 18.8313C24.8087 18.8197 25.7678 18.825 26.7227 18.8313C26.8866 18.8313 27.0505 18.8493 27.262 18.8662C27.1975 19.4289 27.1394 19.9503 27.0749 20.4781C26.9987 21.099 26.9046 21.7262 26.8348 22.3534C26.8052 22.6411 26.7005 22.7691 26.3896 22.7638C25.6219 22.7522 24.8488 22.7574 24.0747 22.7638C23.4709 22.7638 23.4709 22.7638 23.4709 23.3445V32.5686Z" fill="white"/>
<path d="M80.669 2.6369C83.7445 2.6411 86.6928 3.86528 88.867 6.04087C91.0412 8.21646 92.2638 11.1658 92.2666 14.2419V29.2885C92.2627 32.3637 91.0396 35.3119 88.8654 37.4864C86.6913 39.6609 83.7437 40.8843 80.669 40.8882H65.625C62.5495 40.8854 59.6007 39.6626 57.4255 37.488C55.2503 35.3134 54.0264 32.3646 54.0222 29.2885V14.2419C54.0252 11.165 55.2487 8.215 57.424 6.03931C59.5993 3.86363 62.5487 2.63998 65.625 2.6369H80.669ZM80.669 -0.000976562H65.625C61.8484 -0.000696084 58.2265 1.49997 55.556 4.17096C52.8854 6.84195 51.385 10.4645 51.3848 14.2419V29.2885C51.3862 33.065 52.8871 36.6864 55.5575 39.3563C58.2279 42.0262 61.8492 43.5261 65.625 43.5261H80.669C84.4451 43.5263 88.0666 42.0266 90.7372 39.3567C93.4079 36.6867 94.909 33.0652 94.9104 29.2885V14.2419C94.9101 10.4643 93.4095 6.84161 90.7388 4.17059C88.0681 1.49957 84.4459 -0.000976573 80.669 -0.000976562Z" fill="#49B9FD"/>
<path d="M77.34 10.5505C74.5447 10.5385 71.7511 10.5385 68.9593 10.5505C68.0336 10.5376 67.1146 10.7108 66.257 11.0596C65.3993 11.4084 64.6203 11.9258 63.9662 12.5812C63.3122 13.2366 62.7962 14.0166 62.449 14.8751C62.1018 15.7335 61.9304 16.6529 61.9449 17.5788C61.9329 20.3866 61.9291 23.1941 61.9333 26.0012C61.926 26.9195 62.1013 27.8301 62.4492 28.68C62.797 29.5299 63.3104 30.3022 63.9594 30.9518C64.6084 31.6014 65.3801 32.1154 66.2296 32.464C67.079 32.8125 67.9893 32.9886 68.9075 32.9819C71.7321 32.9819 74.5567 32.9819 77.3812 32.964C78.2992 32.9715 79.2096 32.7966 80.0594 32.4493C80.9092 32.102 81.6815 31.5892 82.3315 30.9408C82.9815 30.2924 83.4961 29.5212 83.8456 28.6721C84.195 27.8231 84.3723 26.913 84.3671 25.9949V17.5661C84.3804 16.6401 84.2076 15.7208 83.859 14.8628C83.5104 14.0048 82.9931 13.2255 82.3377 12.5712C81.6824 11.9169 80.9023 11.4009 80.0438 11.0538C79.1853 10.7067 78.2659 10.5355 77.34 10.5505ZM81.8524 25.9716C81.8653 26.5642 81.7583 27.1534 81.5377 27.7035C81.3171 28.2537 80.9874 28.7536 80.5687 29.173C80.1499 29.5925 79.6506 29.9229 79.1008 30.1443C78.551 30.3657 77.9622 30.4736 77.3696 30.4615C74.5334 30.4671 71.6968 30.4611 68.8599 30.4435C68.2827 30.4454 67.7107 30.3333 67.1769 30.1134C66.6432 29.8935 66.1582 29.5702 65.7497 29.1622C65.3413 28.7542 65.0175 28.2695 64.797 27.7359C64.5766 27.2023 64.4637 26.6304 64.4649 26.053C64.4586 24.5998 64.4649 23.1518 64.4649 21.7038H64.447C64.447 20.3383 64.447 18.9602 64.4586 17.5788C64.4384 16.9834 64.5401 16.3901 64.7574 15.8353C64.9747 15.2806 65.3031 14.7761 65.7224 14.3529C66.1417 13.9296 66.643 13.5966 67.1957 13.3741C67.7483 13.1517 68.3405 13.0446 68.9361 13.0593C71.7434 13.0417 74.5524 13.0417 77.3633 13.0593C77.9554 13.0462 78.544 13.153 79.0938 13.3733C79.6436 13.5936 80.1432 13.9228 80.5625 14.3411C80.9819 14.7594 81.3123 15.2582 81.5339 15.8075C81.7556 16.3569 81.8639 16.9453 81.8524 17.5376C81.858 20.3454 81.858 23.155 81.8524 25.9663" fill="white"/>
<path d="M80.0764 16.1119C80.0636 16.4169 79.932 16.7049 79.7099 16.9142C79.4877 17.1236 79.1924 17.2378 78.8872 17.2324C78.582 17.227 78.291 17.1025 78.0763 16.8854C77.8616 16.6683 77.7403 16.3759 77.7383 16.0706C77.7386 15.92 77.7688 15.771 77.8271 15.6321C77.8853 15.4932 77.9705 15.3672 78.0777 15.2615C78.3104 15.052 78.6107 14.9334 78.9237 14.9272C79.0804 14.928 79.2353 14.9611 79.3785 15.0247C79.5217 15.0882 79.6503 15.1807 79.756 15.2964C79.8606 15.404 79.9426 15.5316 79.9971 15.6715C80.0516 15.8113 80.0775 15.9607 80.0732 16.1108" fill="white"/>
<path d="M73.178 16.0238C72.043 16.0169 70.9313 16.3469 69.9839 16.9721C69.0364 17.5974 68.2956 18.4896 67.8554 19.5361C67.4151 20.5825 67.2951 21.736 67.5105 22.8507C67.726 23.9654 68.2672 24.9911 69.0657 25.798C69.8641 26.6049 70.884 27.1568 71.9962 27.3837C73.1084 27.6107 74.2629 27.5026 75.3136 27.0731C76.3643 26.6436 77.2641 25.912 77.8989 24.9708C78.5338 24.0297 78.8752 22.9214 78.8801 21.7861C78.879 20.2684 78.2798 18.8122 77.2124 17.7335C76.145 16.6548 74.6954 16.0405 73.178 16.0238ZM73.1368 25.2384C72.4496 25.2344 71.779 25.0269 71.2096 24.6421C70.6402 24.2573 70.1976 23.7125 69.9375 23.0763C69.6774 22.4401 69.6116 21.7411 69.7483 21.0676C69.885 20.394 70.2182 19.776 70.7057 19.2917C71.1932 18.8073 71.8133 18.4782 72.4876 18.346C73.162 18.2137 73.8604 18.2842 74.4947 18.5486C75.129 18.8129 75.6708 19.2593 76.0517 19.8314C76.4327 20.4034 76.6356 21.0755 76.635 21.7628C76.6269 22.6861 76.255 23.569 75.6001 24.2197C74.9451 24.8704 74.06 25.2365 73.1368 25.2384Z" fill="white"/>
<path d="M132.058 2.6369C135.134 2.63998 138.083 3.86366 140.258 6.03938C142.434 8.21509 143.657 11.1651 143.66 14.2419V29.2885C143.656 32.3645 142.432 35.3133 140.257 37.4879C138.082 39.6625 135.133 40.8854 132.058 40.8882H117.011C113.936 40.8846 110.988 39.6614 108.813 37.4868C106.639 35.3123 105.415 32.364 105.411 29.2885V14.2419C105.414 11.1655 106.637 8.21603 108.812 6.04043C110.986 3.86484 113.935 2.64082 117.011 2.6369H132.058ZM132.058 -0.000975934H117.011C113.234 0.000145849 109.613 1.50119 106.944 4.17208C104.274 6.84298 102.774 10.4651 102.773 14.2419V29.2885C102.775 33.0645 104.275 36.6854 106.945 39.3552C109.615 42.025 113.235 43.5252 117.011 43.5261H132.058C133.928 43.5268 135.78 43.159 137.508 42.4439C139.236 41.7288 140.806 40.6803 142.129 39.3582C143.451 38.0361 144.501 36.4664 145.217 34.7386C145.934 33.0109 146.303 31.1589 146.303 29.2885V14.2419C146.303 12.3711 145.935 10.5186 145.219 8.7903C144.502 7.062 143.453 5.4917 142.13 4.16909C140.807 2.84648 139.237 1.79747 137.509 1.08196C135.78 0.366452 133.928 -0.00153161 132.058 -0.000975934Z" fill="#49B9FD"/>
<path d="M183.446 2.6369C186.521 2.64194 189.468 3.86649 191.642 6.04199C193.815 8.21749 195.037 11.1664 195.04 14.2419V29.2885C195.036 32.3632 193.813 35.3109 191.64 37.4853C189.467 39.6597 186.52 40.8834 183.446 40.8882H168.398C165.323 40.8851 162.375 39.6622 160.2 37.4876C158.025 35.313 156.801 32.3644 156.797 29.2885V14.2419C156.8 11.1652 158.023 8.21534 160.198 6.03969C162.373 3.86403 165.322 2.64026 168.398 2.6369H183.446ZM183.446 -0.000976562H168.398C164.622 -0.000696084 161 1.49997 158.329 4.17096C155.659 6.84195 154.158 10.4645 154.158 14.2419V29.2885C154.16 33.065 155.661 36.6864 158.331 39.3563C161.001 42.0262 164.623 43.5261 168.398 43.5261H183.446C187.221 43.5255 190.842 42.0254 193.512 39.3556C196.182 36.6857 197.682 33.0647 197.684 29.2885V14.2419C197.684 10.4649 196.183 6.84264 193.513 4.17171C190.843 1.50078 187.222 -0.000135187 183.446 -0.000976562Z" fill="#49B9FD"/>
</g>
<mask id="mask1_15_526" style="mask-type:luminance" maskUnits="userSpaceOnUse" x="51" y="0" width="199" height="44">
<path d="M249.501 0H51.8184V43.527H249.501V0Z" fill="white"/>
</mask>
<g mask="url(#mask1_15_526)">
<path d="M235.264 2.63665C238.339 2.64169 241.286 3.86624 243.46 6.04174C245.633 8.21725 246.856 11.1661 246.858 14.2416V29.2883C246.854 32.363 245.632 35.3106 243.458 37.485C241.285 39.6595 238.338 40.8832 235.264 40.888H220.217C217.142 40.8849 214.193 39.6619 212.018 37.4873C209.843 35.3128 208.619 32.3641 208.615 29.2883V14.2416C208.618 11.1649 209.841 8.2151 212.016 6.03944C214.192 3.86379 217.141 2.64001 220.217 2.63665H235.264ZM235.264 -0.0012207H220.217C216.44 -0.000940224 212.818 1.49973 210.148 4.17072C207.477 6.84171 205.977 10.4643 205.977 14.2416V29.2883C205.978 33.0648 207.479 36.6862 210.149 39.3561C212.82 42.026 216.441 43.5258 220.217 43.5258H235.264C239.039 43.5253 242.66 42.0252 245.33 39.3553C248 36.6855 249.501 33.0644 249.502 29.2883V14.2416C249.502 10.4646 248.002 6.84239 245.332 4.17146C242.662 1.50054 239.04 -0.000379328 235.264 -0.0012207Z" fill="#49B9FD"/>
</g>
</svg>
